<svg width="100" height="100" xml:space="preserve" xmlns="http://www.w3.org/2000/svg"><path d="m29.04 62.547 16.498 16.497a2.916 2.916 0 0 1 0 4.125l-7.887 7.887a15.094 15.094 0 0 1-21.345 0l-7.887-7.887a2.916 2.916 0 0 1 0-4.124l16.497-16.498a2.916 2.916 0 0 1 4.125 0z" style="fill:#ef435a;fill-opacity:1;fill-rule:evenodd;stroke:#000;stroke-width:3.0565;stroke-linecap:round;stroke-linejoin:round;stroke-dasharray:none;stroke-opacity:1"/><path style="fill:#e0e0e0;fill-rule:evenodd;stroke:#000;stroke-width:3.05648;stroke-linecap:round;stroke-linejoin:round" d="m53.669 37.917 16.498 16.498a2.91 2.91 0 0 1 0 4.123L53.669 75.036a2.91 2.91 0 0 1-4.124 0L33.047 58.538a2.91 2.91 0 0 1 0-4.123l16.498-16.498a2.91 2.91 0 0 1 4.124 0z"/><path style="fill:#ffc11f;fill-opacity:1;fill-rule:evenodd;stroke:#000;stroke-width:3.05648;stroke-linecap:round;stroke-linejoin:round;stroke-dasharray:none;stroke-opacity:1" d="M57.678 29.784a2.916 2.916 0 0 0 0 4.124l16.498 16.497a2.916 2.916 0 0 0 4.124 0l16.497-16.497a2.916 2.916 0 0 0 0-4.124l-8.188-8.189a14.667 14.667 0 0 0-20.742 0zm16.284-.213a3.219 3.219 0 0 1 4.55 0 3.219 3.219 0 0 1 0 4.55 3.219 3.219 0 0 1-4.55 0 3.219 3.219 0 0 1 0-4.551z"/><path d="M21.548 5.792 45.636 29.88a2.916 2.916 0 0 1 0 4.124L29.138 50.501a2.916 2.916 0 0 1-4.124 0l-10.7-10.7a22.78 22.78 0 0 1 0-32.215l1.792-1.794a3.848 3.848 0 0 1 5.442 0z" style="fill:#1cc8eb;fill-opacity:1;fill-rule:evenodd;stroke:#000;stroke-width:3.0565;stroke-linecap:round;stroke-linejoin:round;stroke-dasharray:none;stroke-opacity:1"/></svg>